<svg width="287" height="187" viewBox="0 0 287 187" fill="none" xmlns="http://www.w3.org/2000/svg">
<path d="M1.43902 136.708L1.24023 117.158L16.333 110.329C16.333 110.329 20.7048 111.486 19.3525 105.453C17.9982 99.4198 8.72732 61.7146 35.7872 43.3541C47.9628 35.2225 105.889 30.7425 174.348 22.8741C204.654 19.7269 231.814 16.2558 250.113 28.419C269.056 41.0092 264.455 76.1179 260.667 85.8235C256.337 97.8896 231.983 113.626 202.76 120.707L114.005 141.428C114.005 141.428 67.4632 154.281 37.9692 133.035C35.5336 131.986 33.3679 131.463 27.6855 133.035C22.0031 134.607 4.41481 138.018 4.41481 138.018C4.41481 138.018 1.23828 139.267 1.43902 136.708Z" fill="url(#paint0_linear_142:2990)" stroke="black" stroke-miterlimit="10"/>
<path d="M1.43785 116.249L17.402 96.8397C17.402 96.8397 20.9194 93.1685 19.567 87.1361C18.2134 81.103 11.1793 55.3981 38.2378 37.0382C50.4147 28.9072 105.887 10.2847 174.347 2.41568C204.653 -0.730871 226.402 1.26799 244.701 13.4312C263.643 26.0214 264.454 55.6594 260.666 65.365C256.336 77.4312 231.982 93.1679 202.759 100.248L114.003 120.97C114.003 120.97 67.462 133.821 37.968 112.577C35.5325 111.528 33.3668 111.004 27.6843 112.577C22.0019 114.15 4.41365 117.559 4.41365 117.559C4.41365 117.559 -0.457384 118.611 1.43785 116.249Z" fill="white" stroke="black" stroke-width="2" stroke-miterlimit="10"/>
<path d="M268.821 176.293L268.617 160.602C268.617 160.602 268.362 149.499 268.362 146.118C268.433 143.416 268.703 141.688 275.643 137.274C280.251 134.688 285.736 123.943 285.993 110.426C286.25 96.8181 279.886 67.5502 247.014 75.483C206.047 85.3711 101.452 126.902 101.452 126.902C101.452 126.902 100.554 141.943 100.416 146.735C98.8134 178.488 123.895 187.775 138.966 185.506C154.036 183.238 231.634 162.447 231.634 162.447C231.634 162.447 240.511 158.91 247.668 164.338C256.501 171.036 265.625 175.677 265.625 175.677C265.625 175.677 269.257 178.211 268.821 176.293Z" fill="url(#paint1_linear_142:2990)" stroke="black" stroke-miterlimit="10"/>
<path d="M268.126 158.291L267.271 142.457C267.271 142.457 266.838 138.098 266.838 134.718C266.906 132.016 267.146 128.453 274.086 123.123C281.074 117.935 283.878 105.991 282.371 93.033C280.799 79.5135 259.466 60.8043 226.596 68.7378C185.627 78.6258 134.094 89.4941 134.094 89.4941C134.094 89.4941 102.349 97.0548 100.745 128.806C99.1419 160.559 122.551 169.631 137.621 167.362C152.692 165.095 230.29 144.305 230.29 144.305C230.29 144.305 239.166 140.768 246.324 146.193C255.156 152.894 264.279 157.534 264.279 157.534C264.279 157.534 268.561 160.207 268.126 158.291Z" fill="white" stroke="black" stroke-width="2" stroke-miterlimit="10"/>
<path d="M183.177 91.3593L196.538 87.7188L214.689 129.106L198.403 133.59L189.716 117.09L186.388 136.887L168.81 141.673L153.562 126.199L154.964 145.411L135.84 150.527L141.724 102.732L157.031 98.5329L172.68 123.325L183.177 91.3593Z" fill="#222720"/>
<path d="M238.992 87.0729L217.463 92.8114L219.767 99.1736L238.072 94.2439L243.491 103.328L224.123 108.603L227.718 114.897L252.299 108.162L259.72 116.646L218.438 128.07L202.702 86.1754L235.009 77.5498L238.992 87.0729Z" fill="#222720"/>
<path d="M130.744 185.438V167.836" stroke="black" stroke-miterlimit="10"/>
<path d="M104.913 168.293V151.604" stroke="black" stroke-miterlimit="10"/>
<path d="M124.116 184.523V166.236" stroke="black" stroke-miterlimit="10"/>
<path d="M240.246 161.207V143.603" stroke="black" stroke-miterlimit="10"/>
<path d="M245.96 163.036V146.346" stroke="black" stroke-miterlimit="10"/>
<path d="M264.583 174.802V157.656" stroke="black" stroke-miterlimit="10"/>
<path d="M275.643 137.274V121.745" stroke="black" stroke-miterlimit="10"/>
<path d="M278.194 134.688V119.268" stroke="black" stroke-miterlimit="10"/>
<path d="M39.2832 133.341V113.692" stroke="black" stroke-miterlimit="10"/>
<path d="M32.9092 132.04V112.392" stroke="black" stroke-miterlimit="10"/>
<path d="M4.73535 137.893V118.244" stroke="black" stroke-miterlimit="10"/>
<path d="M86.5771 145.046V125.397" stroke="black" stroke-miterlimit="10"/>
<path d="M83.6406 144.999V124.587" stroke="black" stroke-miterlimit="10"/>
<path d="M58.376 72.7125C59.7426 73.4998 60.8069 74.5934 61.5721 75.9914C62.3476 77.39 62.721 79.0187 62.6891 80.8865C62.6702 82.5569 62.3157 84.2078 61.6248 85.8332C60.936 87.4638 59.9897 88.9686 58.7833 90.3503C57.5724 91.7346 56.1575 92.937 54.5418 93.9531C52.921 94.9724 51.1835 95.7075 49.3332 96.154L38.9785 98.6579L41.8201 62.6237L50.5083 60.5421C51.8658 60.2084 53.1237 60.1576 54.2818 60.3811C55.4419 60.6093 56.4416 61.0596 57.2824 61.7302C58.1264 62.4022 58.7644 63.267 59.1971 64.3306C59.6384 65.389 59.8189 66.5987 59.7394 67.9627C59.6475 69.5875 59.1958 71.1679 58.376 72.7125ZM48.559 69.0681L48.2833 72.3958L49.5131 72.0947C50.2723 71.877 50.8947 71.5335 51.3731 71.0591C51.8554 70.5833 52.1076 70.1643 52.1343 69.7986C52.1585 69.4708 51.961 69.1704 51.5367 68.9012C51.1157 68.6294 50.5141 68.589 49.7327 68.78L48.559 69.0681ZM49.5196 87.9839C50.2085 87.8157 50.8778 87.5492 51.5256 87.1842C52.1735 86.8173 52.7437 86.3956 53.2384 85.9218C53.7304 85.4467 54.1247 84.939 54.416 84.4007C54.71 83.861 54.8651 83.3331 54.8807 82.815C54.897 82.2949 54.7765 81.8231 54.5151 81.4021C54.2557 80.9823 53.8947 80.6539 53.4319 80.4114C52.9692 80.1703 52.427 80.0191 51.8065 79.9604C51.1841 79.9031 50.5343 79.9578 49.8585 80.1214L49.0236 80.3247L48.9311 80.3476L47.7267 80.6402L47.3513 88.5092L49.5196 87.9839Z" fill="#222720"/>
<path d="M86.0528 60.0077L72.8917 63.2462L72.7594 68.6151L83.5847 65.9574L83.7274 74.059L72.6975 76.7585L72.7555 82.3295L86.5025 78.9718L86.9795 87.0096L65.0566 92.344L65.9136 56.9003L86.1479 51.8572L86.0528 60.0077Z" fill="#222720"/>
<path d="M105.356 82.4725C103.223 82.9952 101.096 83.0871 98.9777 82.7521C96.8687 82.4152 94.9285 81.592 93.1753 80.282C91.4984 78.9871 90.1937 77.3871 89.265 75.4762C88.3538 73.5627 87.8637 71.4237 87.7907 69.0664C87.7353 66.67 88.0918 64.3127 88.8602 61.988C89.6293 59.6646 90.7522 57.4858 92.2251 55.4531C93.743 53.3454 95.4499 51.6242 97.349 50.2861C99.2338 48.9527 101.151 48.0435 103.099 47.56C105.043 47.0751 106.952 47.0347 108.834 47.4348C110.724 47.8317 112.453 48.7037 114.033 50.0463L109.407 56.9377C108.537 56.2195 107.571 55.7607 106.509 55.556C105.447 55.354 104.384 55.384 103.314 55.6486C102.242 55.9145 101.199 56.4059 100.183 57.1215C99.1628 57.841 98.2549 58.7639 97.4585 59.892C96.6869 61.0156 96.1042 62.2011 95.7158 63.4544C95.3228 64.7083 95.1553 65.9713 95.2081 67.2429C95.2687 68.5151 95.5476 69.6595 96.0488 70.6795C96.5539 71.6968 97.2487 72.561 98.1376 73.2779C99.0566 73.9844 100.078 74.4341 101.19 74.6276C102.306 74.8192 103.425 74.7788 104.545 74.5038C105.663 74.2301 106.744 73.7302 107.783 73.0074C108.823 72.2853 109.717 71.3657 110.471 70.2461L116.309 74.6107C114.938 76.6891 113.314 78.3888 111.434 79.704C109.541 81.0198 107.515 81.944 105.356 82.4725Z" fill="#222720"/>
<path d="M128.557 41.2585C130.572 40.7535 132.508 40.7359 134.369 41.2051C136.237 41.6704 137.925 42.5151 139.438 43.7319C140.964 44.9499 142.264 46.503 143.341 48.3989C144.439 50.2902 145.187 52.4136 145.582 54.7728C145.994 57.1269 145.996 59.4392 145.579 61.7105C145.163 63.9811 144.405 66.051 143.298 67.9267C142.182 69.8063 140.755 71.4304 139.011 72.7984C137.257 74.1709 135.282 75.1238 133.084 75.6654C130.879 76.2089 128.723 76.2721 126.626 75.8491C124.533 75.4281 122.655 74.6213 120.998 73.4312C119.354 72.2392 117.988 70.6972 116.906 68.8052C115.839 66.9055 115.194 64.7612 114.966 62.37C114.751 59.9743 114.968 57.6176 115.614 55.3014C116.258 52.9845 117.209 50.8748 118.455 48.9705C119.694 47.0687 121.187 45.4335 122.929 44.0662C124.66 42.7008 126.534 41.7649 128.557 41.2585ZM131.774 67.7964C132.941 67.509 133.995 66.998 134.936 66.2628C135.873 65.5316 136.652 64.6537 137.271 63.6272C137.888 62.6008 138.321 61.4759 138.572 60.2513C138.821 59.0247 138.846 57.7767 138.648 56.4999C138.455 55.2251 138.065 54.0748 137.483 53.0588C136.905 52.0401 136.194 51.202 135.352 50.5398C134.511 49.8764 133.579 49.4254 132.545 49.1803C131.515 48.9398 130.444 48.9555 129.332 49.2325C128.218 49.5095 127.193 50.0165 126.261 50.7458C125.323 51.4809 124.522 52.3653 123.863 53.399C123.201 54.4326 122.712 55.5692 122.394 56.8101C122.079 58.0471 121.99 59.3121 122.128 60.5987C122.274 61.8852 122.632 63.0355 123.208 64.0554C123.789 65.0728 124.518 65.9096 125.399 66.5633C126.285 67.215 127.277 67.6562 128.375 67.883C129.474 68.1151 130.608 68.0857 131.774 67.7964Z" fill="#222720"/>
<path d="M163.835 32.3824L170.366 30.729L180.554 63.962L173.621 65.6859L169.255 52.1651L168.654 66.9202L161.607 68.6701L153.888 55.4218L156.22 70.0049L149.008 71.7887L144.975 37.1414L151.712 35.4443L162.028 55.1871L163.835 32.3824Z" fill="#222720"/>
<path d="M189.478 61.7343L182.632 63.4418L173.865 29.8399L180.102 28.2549L189.478 61.7343Z" fill="#222720"/>
<path d="M198.98 23.4761L204.936 21.9485L216.788 54.8843L209.676 56.6733L193.812 39.7394L200.228 59.0443L193.492 60.7317L183.792 27.4582L190.464 25.7559L205.156 42.8782L198.98 23.4761Z" fill="#222720"/>
<path d="M234.456 30.2009L242.877 48.2845L236.554 49.889L236.181 49.0952C235.623 49.5671 235.002 49.9607 234.329 50.2787C233.652 50.5994 232.95 50.8503 232.222 51.0348C230.435 51.4871 228.503 51.532 226.433 51.1729C224.368 50.8119 222.315 50.0037 220.282 48.7524C218.27 47.4946 216.536 45.9474 215.09 44.1075C213.662 42.2651 212.559 40.2819 211.782 38.1605C211.016 36.0378 210.6 33.876 210.525 31.6732C210.457 29.4703 210.787 27.3958 211.511 25.4472C212.224 23.4992 213.231 21.92 214.524 20.7058C215.806 19.491 217.254 18.6763 218.873 18.2586C220.482 17.8415 222.199 17.8376 224.035 18.2455C225.871 18.6529 227.715 19.5027 229.572 20.7899L227.588 27.199C226.57 26.5115 225.548 26.0604 224.521 25.8512C223.498 25.6414 222.543 25.6486 221.659 25.8767C220.775 26.1035 219.98 26.5453 219.276 27.2003C218.568 27.856 218.031 28.7065 217.666 29.7479C217.299 30.7894 217.141 31.9117 217.195 33.1037C217.248 34.3003 217.491 35.4636 217.923 36.5963C218.361 37.7264 218.975 38.7972 219.775 39.8028C220.582 40.8104 221.516 41.6492 222.582 42.3296C223.541 42.9364 224.512 43.3509 225.493 43.5764C226.477 43.8025 227.409 43.8436 228.29 43.7015C229.169 43.5607 229.969 43.2485 230.683 42.7728C231.398 42.2951 231.969 41.6583 232.398 40.8626L231.674 39.2274L226.327 40.5895L223.247 33.0783L234.456 30.2009Z" fill="#222720"/>
<defs>
<linearGradient id="paint0_linear_142:2990" x1="1.24017" y1="82.5794" x2="264.068" y2="82.5794" gradientUnits="userSpaceOnUse">
<stop offset="0.1559" stop-color="#F7323F"/>
<stop offset="0.2345" stop-color="#FB4120"/>
<stop offset="0.3065" stop-color="#FF5000"/>
<stop offset="0.4731" stop-color="#FFD700"/>
<stop offset="0.6559" stop-color="#3CD52E"/>
<stop offset="0.6779" stop-color="#2AA14E"/>
<stop offset="0.7084" stop-color="#145E77"/>
<stop offset="0.7306" stop-color="#053590"/>
<stop offset="0.7419" stop-color="#00259A"/>
<stop offset="0.8118" stop-color="#0082CB"/>
<stop offset="0.8132" stop-color="#0083CB"/>
<stop offset="0.8514" stop-color="#0092CD"/>
<stop offset="0.8817" stop-color="#0098CE"/>
<stop offset="1" stop-color="#C227B9"/>
</linearGradient>
<linearGradient id="paint1_linear_142:2990" x1="100.343" y1="129.986" x2="286.001" y2="129.986" gradientUnits="userSpaceOnUse">
<stop stop-color="#F7323F"/>
<stop offset="0.1122" stop-color="#FB4120"/>
<stop offset="0.2151" stop-color="#FF5000"/>
<stop offset="0.4731" stop-color="#FFD700"/>
<stop offset="0.6559" stop-color="#3CD52E"/>
<stop offset="0.6779" stop-color="#2AA14E"/>
<stop offset="0.7084" stop-color="#145E77"/>
<stop offset="0.7306" stop-color="#053590"/>
<stop offset="0.7419" stop-color="#00259A"/>
<stop offset="0.8118" stop-color="#0082CB"/>
<stop offset="0.8132" stop-color="#0083CB"/>
<stop offset="0.8514" stop-color="#0092CD"/>
<stop offset="0.8817" stop-color="#0098CE"/>
<stop offset="1" stop-color="#C227B9"/>
</linearGradient>
</defs>
</svg>
